<?xml version="1.0" encoding="utf-8"?>
<!DOCTYPE svg PUBLIC "-//W3C//DTD SVG 1.0//EN" "http://www.w3.org/TR/2001/REC-SVG-20010904/DTD/svg10.dtd">
<svg version="1.0" xmlns="http://www.w3.org/2000/svg" width="948px" height="372px" viewBox="0 0 948 372" preserveAspectRatio="xMidYMid meet">
 <g fill="#c2040c">
  <path d="M394.13 343.30 c-27.13 -2.03 -54.54 -8.66 -79.58 -19.29 -30.55 -12.95 -56.11 -31.89 -89.17 -66.05 -23.29 -23.99 -35.38 -34.39 -53.27 -45.89 -24.98 -16.03 -50.25 -26.72 -81.09 -34.33 -14.17 -3.43 -20.16 -4.24 -26.43 -3.49 -6.74 0.81 -14 2.56 -22.13 5.29 -7.73 2.61 -8.66 2.67 -10.75 1.05 -2.03 -1.57 -2.09 -5 -0.17 -6.74 2.96 -2.79 28.35 -8.89 37 -8.89 11.50 0 43.80 8.60 65.93 17.54 18.41 7.44 42.29 21.14 58.38 33.46 9.18 7.03 15.92 13.30 36.60 33.92 11.33 11.27 24.16 23.58 28.46 27.36 30.26 26.55 57.57 40.95 95.56 50.65 21.32 5.46 33.81 6.97 56.93 6.91 39.38 -0.06 69.65 -5.34 140.23 -24.63 64.77 -17.66 106.36 -26.26 160.67 -33.11 36.65 -4.65 72.20 -7.96 112.98 -10.51 5.93 -0.35 10.92 -0.81 11.15 -1.05 0.23 -0.17 -4.71 -5.11 -10.92 -10.98 -10.46 -9.88 -11.27 -10.80 -11.27 -12.66 0 -2.67 0.81 -4.07 2.90 -5.17 3.43 -1.74 4.18 -1.39 13.07 7.03 l8.42 7.90 0 -12.02 0 -12.02 1.74 -1.74 c1.57 -1.57 2.09 -1.74 4.18 -1.45 1.28 0.17 2.90 0.87 3.60 1.57 1.16 1.10 1.22 1.92 1.51 16.03 l0.29 14.87 8.71 -9.12 c4.82 -5.05 10.69 -11.21 13.07 -13.71 3.95 -4.18 4.53 -4.59 6.56 -4.59 3.14 0 5.63 2.50 5.63 5.58 0 2.09 -0.70 2.90 -13.77 16.09 l-13.82 13.88 5.52 -0.35 c3.02 -0.17 14.58 -0.76 25.73 -1.28 22.36 -1.10 22.54 -1.05 23.99 2.38 1.05 2.56 0.58 4.53 -1.51 6.27 -1.51 1.28 -2.15 1.39 -19.81 2.09 -18.99 0.76 -24.34 1.10 -24.34 1.74 0 0.23 3.66 3.19 8.13 6.68 4.53 3.43 8.60 6.91 9.12 7.67 1.98 3.02 -1.22 8.36 -4.94 8.36 -2.50 0 -4.01 -1.05 -16.09 -11.15 -6.27 -5.17 -11.79 -9.53 -12.26 -9.64 -0.70 -0.17 -0.81 1.74 -0.81 12.66 l0 12.84 -1.45 1.39 c-1.92 1.98 -5.40 1.98 -7.67 0.06 l-1.63 -1.39 -0.29 -10.63 -0.29 -10.57 -8.77 9.24 c-4.82 5.05 -11.04 11.79 -13.88 14.93 -2.79 3.08 -5.69 5.81 -6.45 5.98 -3.49 0.87 -6.62 -1.57 -6.62 -5.05 0 -2.73 -1.16 -1.34 17.95 -21.38 l8.31 -8.77 -3.08 0 c-6.33 0 -52.45 3.72 -76.91 6.16 -33.87 3.37 -59.02 6.56 -84.23 10.75 -36.71 6.10 -59.42 11.21 -111.53 25.15 -56.40 15.04 -82.95 20.56 -112.40 23.29 -11.79 1.10 -35.67 1.57 -45.02 0.87z"/>
  <path d="M370.60 326.63 c-6.16 -2.27 -12.78 -21.20 -15.34 -43.74 -1.34 -11.44 -2.21 -26.14 -1.98 -33.05 0.17 -5.69 0.23 -6.10 1.68 -7.14 1.86 -1.39 4.24 -0.93 5.63 1.16 0.81 1.22 1.05 3.89 1.39 16.03 0.41 16.03 1.51 27.30 3.66 37.53 1.45 7.20 4.30 15.74 5.23 16.09 0.35 0.12 1.74 -2.09 3.14 -4.88 3.89 -7.84 9.70 -17.19 20.68 -32.99 5.58 -8.02 11.50 -17.02 13.24 -20.04 3.95 -6.80 5.11 -8.13 7.26 -8.13 3.54 0 4.65 3.83 2.38 8.31 -0.70 1.34 -3.14 5.17 -5.40 8.54 -2.32 3.37 -6.68 9.76 -9.76 14.23 -11.39 16.67 -18.99 30.21 -22.89 40.66 -2.56 6.91 -4.94 8.89 -8.95 7.44z"/>
  <path d="M446.41 314.55 c-7.09 -0.93 -11.85 -2.32 -17.54 -5 -8.13 -3.83 -11.21 -8.07 -11.68 -15.74 l-0.29 -4.53 -1.63 0 c-3.60 0 -5.34 -4.41 -2.67 -6.80 0.76 -0.76 2.73 -1.51 5.05 -1.92 2.09 -0.35 4.18 -0.76 4.76 -0.93 0.52 -0.17 4.59 -4.41 9.06 -9.41 8.36 -9.41 16.50 -17.54 23.76 -23.76 14.70 -12.55 26.31 -15.74 29.97 -8.13 0.93 1.86 0.99 2.56 0.41 5 -2.96 12.37 -30.21 34.27 -52.11 41.88 -4.71 1.63 -5.40 2.09 -5.93 3.66 -1.10 3.02 -0.76 6.97 0.70 9.18 1.68 2.50 8.31 5.93 14.58 7.49 20.85 5.23 43.45 0.93 66.57 -12.78 3.72 -2.15 9.58 -6.04 13.07 -8.66 3.49 -2.61 6.62 -4.71 6.97 -4.71 0.93 0 2.03 1.28 2.03 2.38 0 1.22 -3.66 4.59 -10.98 9.99 -24.69 18.41 -49.84 26.14 -74.12 22.77z m-2.73 -42.40 c7.26 -3.72 15.97 -10.11 22.36 -16.38 4.47 -4.47 7.96 -9 7.96 -10.46 0 -2.15 -5.69 0.41 -12.78 5.81 -5.81 4.47 -25.56 24.22 -24.11 24.22 0.23 0 3.19 -1.45 6.56 -3.19z"/>
  <path d="M296.25 280.57 c-0.70 -0.70 -1.16 -1.92 -1.16 -3.14 0 -2.56 2.50 -12.20 6.68 -25.62 3.14 -10.11 6.45 -22.89 7.90 -30.38 0.70 -3.83 1.98 -5.34 4.30 -5.34 1.74 0 3.78 2.38 3.78 4.30 0 1.57 0.17 1.45 4.01 -2.44 8.54 -8.77 16.79 -10.40 23.12 -4.65 3.02 2.85 8.13 10.86 8.66 13.71 0.52 2.79 -0.52 4.76 -2.56 4.76 -2.15 0 -2.96 -0.70 -5.87 -5.05 -2.96 -4.47 -5.93 -6.80 -8.48 -6.74 -7.49 0.23 -17.77 12.72 -24.98 30.32 -2.44 5.93 -6.51 19.23 -7.90 25.50 -0.81 3.89 -2.44 5.93 -4.65 5.93 -0.93 0 -2.21 -0.52 -2.85 -1.16z"/>
  <path d="M504.96 280.86 c-0.99 -0.41 -2.27 -1.63 -2.85 -2.67 -0.93 -1.86 -0.93 -1.98 0.99 -5.63 l1.92 -3.72 -0.70 -6.22 c-1.80 -15.86 -1.98 -18.82 -1.68 -30.26 0.35 -11.62 0.64 -14.93 3.60 -45.31 0.81 -8.13 1.74 -20.27 2.15 -27.01 0.81 -13.77 0.99 -14.23 5.11 -14.23 1.80 0 2.50 0.29 3.25 1.51 1.22 1.86 0.93 9.76 -1.22 32.47 -3.25 34.21 -3.78 41.07 -4.18 51.47 -0.17 5.98 -0.17 11.33 0.06 11.91 0.35 0.87 1.28 -0.52 4.01 -5.87 6.10 -11.73 11.73 -19.58 20.16 -28.06 12.72 -12.78 25.21 -17.37 33.52 -12.37 8.07 4.94 8.83 20.21 1.68 34.62 -6.56 13.13 -18.47 22.77 -44.15 35.72 l-12.14 6.10 -0.81 2.73 c-1.22 4.24 -5.11 6.39 -8.71 4.82z m18.01 -19.11 c14.17 -6.97 21.96 -11.91 29.63 -18.94 9 -8.25 14.35 -19.17 14.35 -29.45 0 -8.83 -3.14 -11.50 -10.80 -9.18 -4.47 1.34 -9.82 5.11 -15.97 11.27 -8.77 8.83 -14.52 17.31 -19.87 29.33 -3.66 8.19 -6.85 20.68 -5.29 20.68 0.17 0 3.72 -1.68 7.96 -3.72z"/>
  <path d="M629.50 274.35 c-0.52 -0.17 -1.39 -0.99 -1.80 -1.86 -1.98 -3.78 -4.88 -18.94 -5.05 -25.91 0 -1.57 -0.23 -3.43 -0.46 -4.07 -0.35 -0.93 -0.64 -0.64 -1.51 1.74 -8.13 22.25 -14.46 29.51 -24.69 28.58 -6.04 -0.52 -10.80 -4.18 -13.77 -10.57 -1.45 -3.14 -1.63 -4.07 -1.63 -9.88 0 -6.22 0.06 -6.51 2.21 -10.75 2.50 -5.11 8.48 -12.14 13.65 -16.26 7.03 -5.58 15.28 -9.24 22.89 -10.17 3.49 -0.46 3.95 -0.93 3.95 -4.53 0 -2.03 2.38 -4.47 4.36 -4.47 0.81 0 2.15 0.64 2.96 1.45 1.28 1.28 1.45 1.86 1.34 5.63 -0.06 2.32 0.12 5.23 0.35 6.45 0.29 1.63 0.17 2.56 -0.58 3.72 -2.21 3.37 -1.68 27.01 0.93 39.09 1.74 8.19 1.92 10.11 1.05 10.86 -1.10 0.81 -2.90 1.22 -4.18 0.93z m-30.26 -10.05 c0.46 0 1.98 -1.05 3.37 -2.32 4.12 -3.78 8.95 -13.65 14.06 -28.70 1.74 -5.05 3.14 -9.35 3.14 -9.53 0 -0.52 -5.29 0.46 -7.44 1.39 -5.05 2.15 -8.60 4.18 -12.08 7.09 -11.73 9.64 -15.63 22.02 -9.12 29.22 1.98 2.21 4.88 3.54 6.45 3.08 0.46 -0.12 1.16 -0.23 1.63 -0.23z"/>
  <path d="M667.20 265.93 c-2.32 -3.54 -4.12 -14 -4.71 -27.19 -0.93 -19.40 4.07 -79.23 7.55 -91.61 1.34 -4.59 4.71 -6.22 7.32 -3.60 1.39 1.39 1.34 1.63 -0.58 10.40 -2.67 12.20 -5.23 43.45 -5.69 69.18 -0.35 18.94 0.06 26.55 1.98 36.65 0.93 4.88 0.93 5.11 -0.12 6.27 -1.51 1.63 -4.65 1.57 -5.75 -0.12z"/>
  <path d="M281.90 263.78 c-3.66 -2.27 -7.26 -12.78 -8.02 -23.58 -0.35 -4.71 0.35 -15.97 1.22 -20.56 0.52 -2.67 -0.35 -2.21 -2.96 1.57 -13.24 19.23 -24.86 16.38 -31.60 -7.67 -2.44 -8.60 -3.60 -16.79 -3.60 -25.27 0 -14.46 2.44 -23.35 11.91 -43.62 2.32 -4.94 4.71 -10.28 5.29 -11.91 1.45 -4.01 2.96 -5.52 5.34 -5.52 2.50 0 4.82 2.21 4.82 4.47 0 0.87 -1.86 5.17 -4.07 9.47 -9.82 18.82 -13.24 27.77 -14.87 38.92 -1.74 11.79 -0.12 26.26 4.07 37.47 2.96 7.73 5.63 8.66 11.04 3.72 7.90 -7.20 19.40 -25.33 23.35 -36.83 0.87 -2.56 1.98 -5.11 2.44 -5.63 1.16 -1.39 4.30 -1.34 5.52 0 1.98 2.21 1.80 4.18 -1.34 13.53 -6.27 18.76 -9.29 33.69 -9.29 45.83 0 8.07 0.87 13.19 3.19 18.70 2.21 5.29 2.38 6.33 1.16 7.26 -1.39 0.99 -1.39 0.99 -3.60 -0.35z"/>
  <path d="M720.06 254.31 c-1.22 -1.98 -1.98 -5.29 -3.25 -14.23 -1.98 -14.41 -2.50 -23.87 -2.15 -39.33 0.35 -15.45 0.93 -21.61 4.18 -44.61 1.10 -7.84 2.03 -14.99 2.03 -15.86 0 -1.92 2.38 -4.36 4.30 -4.36 0.81 0 2.15 0.58 3.02 1.34 2.09 1.80 2.03 2.85 -0.81 19.87 -3.89 23.06 -4.41 29.22 -4.47 48.50 0 17.83 0.23 20.91 3.02 37.70 l1.57 9.53 -1.63 1.34 c-2.03 1.80 -4.71 1.80 -5.81 0.12z"/>
  <path d="M221.78 195.47 c-1.45 -0.81 -9.76 -10.34 -22.83 -26.14 -3.19 -3.89 -10.40 -12.49 -15.97 -19.17 -14.17 -16.90 -21.55 -25.85 -27.30 -33.11 -6.85 -8.77 -12.55 -14.70 -13.30 -13.94 -0.35 0.35 -0.87 6.68 -1.28 15.16 -0.70 14.93 -0.17 32.24 1.28 40.02 0.35 1.86 0.46 3.95 0.29 4.71 -0.93 3.66 -5.34 4.88 -8.31 2.32 l-1.63 -1.39 0.06 -19.69 c0.06 -18.07 0.52 -27.13 2.32 -42.29 0.29 -2.79 0.23 -2.96 -1.45 -3.89 -1.45 -0.81 -1.80 -1.34 -1.80 -3.02 0 -1.92 0.64 -2.73 3.72 -4.71 0.93 -0.64 1.92 -7.38 5.87 -40.60 2.27 -19.52 3.54 -27.65 4.71 -30.38 0.64 -1.57 1.10 -1.92 2.50 -1.92 3.02 0 3.19 1.16 1.86 12.08 -0.64 5.34 -1.86 16.26 -2.67 24.22 -0.81 8.02 -1.86 18.24 -2.38 22.77 -0.52 4.53 -0.81 8.60 -0.70 9.06 0.23 1.10 19.17 -7.78 57.39 -26.72 27.01 -13.42 33.40 -16.32 43.80 -19.87 7.73 -2.67 10.80 -2.96 12.55 -1.22 1.51 1.51 1.57 4.82 0.06 6.33 -1.22 1.22 -2.67 1.57 -8.25 2.03 -6.97 0.58 -21.26 6.39 -48.68 19.92 -10.75 5.29 -27.77 13.65 -37.82 18.59 -10.05 4.94 -18.41 9.12 -18.59 9.29 -0.17 0.12 0.52 0.81 1.45 1.51 3.72 2.67 9.18 8.42 14.64 15.39 11.27 14.46 23.18 28.70 51.29 61.34 6.56 7.61 12.61 14.75 13.53 15.92 1.98 2.61 2.03 4.94 0.12 6.80 -1.63 1.68 -2.27 1.74 -4.47 0.58z"/>
 </g>
 <g fill="#fffefe">
 </g>
</svg>